<svg width="308" height="179" viewBox="0 0 308 179" fill="none" xmlns="http://www.w3.org/2000/svg">
<g filter="url(#filter0_d_240_4843)">
<g clip-path="url(#clip0_240_4843)">
<rect x="60" y="30" width="208" height="216" rx="8" fill="white"/>
<rect x="72" y="36" width="4" height="4" rx="2" fill="#C66264"/>
<rect x="78" y="36" width="4" height="4" rx="2" fill="#DDB77B"/>
<rect x="84" y="36" width="4" height="4" rx="2" fill="#6EA27C"/>
<path d="M275 44L275 44.5996L60 44.5996L60 44L275 44Z" fill="#EEF0F4"/>
<rect x="72" y="56.5996" width="35" height="30" rx="2" fill="#E9E9E9"/>
<rect x="72" y="98.5996" width="43" height="7" rx="3.5" fill="#E9E9E9"/>
<mask id="path-8-outside-1_240_4843" maskUnits="userSpaceOnUse" x="71" y="112.6" width="169" height="25" fill="black">
<rect fill="white" x="71" y="112.6" width="169" height="25"/>
<path d="M72 117.6C72 115.39 73.7909 113.6 76 113.6H235C237.209 113.6 239 115.39 239 117.6V132.6C239 134.809 237.209 136.6 235 136.6H76C73.7909 136.6 72 134.809 72 132.6V117.6Z"/>
</mask>
<path d="M72 117.6C72 115.39 73.7909 113.6 76 113.6H235C237.209 113.6 239 115.39 239 117.6V132.6C239 134.809 237.209 136.6 235 136.6H76C73.7909 136.6 72 134.809 72 132.6V117.6Z" fill="#FAFAFA"/>
<path d="M76 113.6V114.6H235V113.6V112.6H76V113.6ZM239 117.6H238V132.6H239H240V117.6H239ZM235 136.6V135.6H76V136.6V137.6H235V136.6ZM72 132.6H73V117.6H72H71V132.6H72ZM76 136.6V135.6C74.3431 135.6 73 134.256 73 132.6H72H71C71 135.361 73.2386 137.6 76 137.6V136.6ZM239 132.6H238C238 134.256 236.657 135.6 235 135.6V136.6V137.6C237.761 137.6 240 135.361 240 132.6H239ZM235 113.6V114.6C236.657 114.6 238 115.943 238 117.6H239H240C240 114.838 237.761 112.6 235 112.6V113.6ZM76 113.6V112.6C73.2386 112.6 71 114.838 71 117.6H72H73C73 115.943 74.3431 114.6 76 114.6V113.6Z" fill="#EDEDED" mask="url(#path-8-outside-1_240_4843)"/>
<rect x="76" y="121.6" width="78" height="7" rx="3.5" fill="#E9E9E9"/>
<rect x="72" y="148.6" width="35" height="7" rx="3.5" fill="#E9E9E9"/>
<mask id="path-12-outside-2_240_4843" maskUnits="userSpaceOnUse" x="71" y="162.6" width="169" height="46" fill="black">
<rect fill="white" x="71" y="162.6" width="169" height="46"/>
<path d="M72 167.6C72 165.39 73.7909 163.6 76 163.6H235C237.209 163.6 239 165.39 239 167.6V203.6C239 205.809 237.209 207.6 235 207.6H76C73.7909 207.6 72 205.809 72 203.6V167.6Z"/>
</mask>
<path d="M72 167.6C72 165.39 73.7909 163.6 76 163.6H235C237.209 163.6 239 165.39 239 167.6V203.6C239 205.809 237.209 207.6 235 207.6H76C73.7909 207.6 72 205.809 72 203.6V167.6Z" fill="#FAFAFA"/>
<path d="M76 163.6V164.6H235V163.6V162.6H76V163.6ZM239 167.6H238V203.6H239H240V167.6H239ZM235 207.6V206.6H76V207.6V208.6H235V207.6ZM72 203.6H73V167.6H72H71V203.6H72ZM76 207.6V206.6C74.3431 206.6 73 205.256 73 203.6H72H71C71 206.361 73.2386 208.6 76 208.6V207.6ZM239 203.6H238C238 205.256 236.657 206.6 235 206.6V207.6V208.6C237.761 208.6 240 206.361 240 203.6H239ZM235 163.6V164.6C236.657 164.6 238 165.943 238 167.6H239H240C240 164.838 237.761 162.6 235 162.6V163.6ZM76 163.6V162.6C73.2386 162.6 71 164.838 71 167.6H72H73C73 165.943 74.3431 164.6 76 164.6V163.6Z" fill="#EDEDED" mask="url(#path-12-outside-2_240_4843)"/>
<rect x="76" y="174.6" width="78" height="7" rx="3.5" fill="#E9E9E9"/>
<path d="M60 168H268V246H60V168Z" fill="url(#paint0_linear_240_4843)"/>
<g filter="url(#filter1_d_240_4843)">
<g clip-path="url(#clip1_240_4843)">
<rect x="97" y="61" width="134" height="136" rx="12" fill="white"/>
<path d="M219 75L218.08 75.9199L212.08 69.9199L213 69L219 75Z" fill="#667085"/>
<path d="M212.08 75L213 75.9199L219 69.9199L218.08 69L212.08 75Z" fill="#667085"/>
<rect x="109" y="79.9199" width="43" height="7" rx="3.5" fill="#E9E9E9"/>
<rect x="109.5" y="91.4199" width="109" height="58" fill="#FAFAFA"/>
<rect x="109.5" y="91.4199" width="109" height="58" stroke="#EEEEEE" stroke-dasharray="7 7"/>
<path d="M172 105.92C172.53 105.92 173.039 106.131 173.414 106.506C173.789 106.881 174 107.389 174 107.92V121.92C174 122.45 173.789 122.959 173.414 123.334C173.039 123.709 172.53 123.92 172 123.92H156C155.469 123.92 154.96 123.709 154.585 123.334C154.21 122.959 154 122.45 154 121.92V115.92C154 115.655 154.105 115.4 154.292 115.213C154.48 115.025 154.734 114.92 155 114.92C155.265 114.92 155.519 115.025 155.707 115.213C155.894 115.4 156 115.655 156 115.92V118.02L160.995 113.026C161.111 112.91 161.248 112.818 161.4 112.755C161.552 112.692 161.714 112.66 161.879 112.66C162.043 112.66 162.205 112.692 162.357 112.755C162.509 112.818 162.646 112.91 162.763 113.026L166.828 117.092L168.066 115.854C168.182 115.738 168.319 115.646 168.471 115.583C168.623 115.52 168.785 115.488 168.95 115.488C169.114 115.488 169.276 115.52 169.428 115.583C169.58 115.646 169.717 115.738 169.834 115.854L172 118.021V107.92H164C163.734 107.92 163.48 107.815 163.292 107.627C163.105 107.439 163 107.185 163 106.92C163 106.655 163.105 106.4 163.292 106.213C163.48 106.025 163.734 105.92 164 105.92H172ZM157 104.92C157.187 104.92 157.37 104.972 157.529 105.071C157.687 105.17 157.815 105.312 157.898 105.48L157.946 105.597L158.076 105.975C158.213 106.377 158.434 106.746 158.724 107.056C159.014 107.366 159.367 107.611 159.76 107.775L159.945 107.845L160.323 107.974C160.51 108.038 160.674 108.156 160.794 108.313C160.914 108.47 160.985 108.659 160.997 108.857C161.01 109.054 160.963 109.251 160.864 109.422C160.765 109.593 160.617 109.731 160.44 109.818L160.323 109.866L159.945 109.996C159.542 110.133 159.174 110.354 158.864 110.645C158.553 110.935 158.308 111.288 158.145 111.68L158.075 111.865L157.946 112.243C157.882 112.43 157.764 112.594 157.606 112.714C157.449 112.834 157.26 112.905 157.063 112.917C156.865 112.93 156.669 112.884 156.498 112.784C156.326 112.685 156.189 112.537 156.102 112.36L156.054 112.243L155.924 111.865C155.786 111.463 155.565 111.094 155.275 110.784C154.985 110.474 154.632 110.229 154.24 110.065L154.055 109.995L153.677 109.866C153.489 109.802 153.325 109.684 153.205 109.527C153.085 109.37 153.015 109.18 153.002 108.983C152.989 108.786 153.036 108.589 153.135 108.418C153.234 108.247 153.382 108.109 153.56 108.022L153.677 107.974L154.055 107.844C154.457 107.707 154.825 107.486 155.135 107.195C155.446 106.905 155.691 106.552 155.855 106.16L155.925 105.975L156.054 105.597C156.121 105.4 156.248 105.228 156.418 105.107C156.588 104.985 156.791 104.92 157 104.92ZM167.5 109.92C167.897 109.92 168.279 110.078 168.56 110.359C168.841 110.641 169 111.022 169 111.42C169 111.818 168.841 112.199 168.56 112.481C168.279 112.762 167.897 112.92 167.5 112.92C167.102 112.92 166.72 112.762 166.439 112.481C166.158 112.199 166 111.818 166 111.42C166 111.022 166.158 110.641 166.439 110.359C166.72 110.078 167.102 109.92 167.5 109.92Z" fill="#E9E9E9"/>
<rect x="142.5" y="130.92" width="43" height="7" rx="3.5" fill="#E9E9E9"/>
<rect x="109" y="153.92" width="43" height="7" rx="3.5" fill="#E9E9E9"/>
<mask id="path-25-outside-3_240_4843" maskUnits="userSpaceOnUse" x="108" y="167.92" width="169" height="25" fill="black">
<rect fill="white" x="108" y="167.92" width="169" height="25"/>
<path d="M109 172.92C109 170.711 110.791 168.92 113 168.92H272C274.209 168.92 276 170.711 276 172.92V187.92C276 190.129 274.209 191.92 272 191.92H113C110.791 191.92 109 190.129 109 187.92V172.92Z"/>
</mask>
<path d="M109 172.92C109 170.711 110.791 168.92 113 168.92H272C274.209 168.92 276 170.711 276 172.92V187.92C276 190.129 274.209 191.92 272 191.92H113C110.791 191.92 109 190.129 109 187.92V172.92Z" fill="#FAFAFA"/>
<path d="M113 168.92V169.92H272V168.92V167.92H113V168.92ZM276 172.92H275V187.92H276H277V172.92H276ZM272 191.92V190.92H113V191.92V192.92H272V191.92ZM109 187.92H110V172.92H109H108V187.92H109ZM113 191.92V190.92C111.343 190.92 110 189.577 110 187.92H109H108C108 190.681 110.239 192.92 113 192.92V191.92ZM276 187.92H275C275 189.577 273.657 190.92 272 190.92V191.92V192.92C274.761 192.92 277 190.681 277 187.92H276ZM272 168.92V169.92C273.657 169.92 275 171.263 275 172.92H276H277C277 170.158 274.761 167.92 272 167.92V168.92ZM113 168.92V167.92C110.239 167.92 108 170.158 108 172.92H109H110C110 171.263 111.343 169.92 113 169.92V168.92Z" fill="#EDEDED" mask="url(#path-25-outside-3_240_4843)"/>
<rect x="113" y="176.92" width="78" height="7" rx="3.5" fill="#E9E9E9"/>
</g>
<rect x="97.5" y="61.5" width="133" height="135" rx="11.5" stroke="#F0F0F0"/>
</g>
<g filter="url(#filter2_d_240_4843)">
<path d="M224.359 155L254.007 169.797L240.197 174.093L233.793 185.324L224.359 155Z" fill="#053ECD"/>
</g>
</g>
</g>
<defs>
<filter id="filter0_d_240_4843" x="0" y="-10" width="308" height="316" filterUnits="userSpaceOnUse" color-interpolation-filters="sRGB">
<feFlood flood-opacity="0" result="BackgroundImageFix"/>
<feColorMatrix in="SourceAlpha" type="matrix" values="0 0 0 0 0 0 0 0 0 0 0 0 0 0 0 0 0 0 127 0" result="hardAlpha"/>
<feOffset dx="-10" dy="10"/>
<feGaussianBlur stdDeviation="25"/>
<feComposite in2="hardAlpha" operator="out"/>
<feColorMatrix type="matrix" values="0 0 0 0 0.92468 0 0 0 0 0.92468 0 0 0 0 0.92468 0 0 0 1 0"/>
<feBlend mode="normal" in2="BackgroundImageFix" result="effect1_dropShadow_240_4843"/>
<feBlend mode="normal" in="SourceGraphic" in2="effect1_dropShadow_240_4843" result="shape"/>
</filter>
<filter id="filter1_d_240_4843" x="87" y="53" width="154" height="156" filterUnits="userSpaceOnUse" color-interpolation-filters="sRGB">
<feFlood flood-opacity="0" result="BackgroundImageFix"/>
<feColorMatrix in="SourceAlpha" type="matrix" values="0 0 0 0 0 0 0 0 0 0 0 0 0 0 0 0 0 0 127 0" result="hardAlpha"/>
<feOffset dy="2"/>
<feGaussianBlur stdDeviation="5"/>
<feComposite in2="hardAlpha" operator="out"/>
<feColorMatrix type="matrix" values="0 0 0 0 0 0 0 0 0 0 0 0 0 0 0 0 0 0 0.04 0"/>
<feBlend mode="normal" in2="BackgroundImageFix" result="effect1_dropShadow_240_4843"/>
<feBlend mode="normal" in="SourceGraphic" in2="effect1_dropShadow_240_4843" result="shape"/>
</filter>
<filter id="filter2_d_240_4843" x="222.359" y="154.2" width="33.6475" height="34.3242" filterUnits="userSpaceOnUse" color-interpolation-filters="sRGB">
<feFlood flood-opacity="0" result="BackgroundImageFix"/>
<feColorMatrix in="SourceAlpha" type="matrix" values="0 0 0 0 0 0 0 0 0 0 0 0 0 0 0 0 0 0 127 0" result="hardAlpha"/>
<feOffset dy="1.2"/>
<feGaussianBlur stdDeviation="1"/>
<feColorMatrix type="matrix" values="0 0 0 0 0 0 0 0 0 0 0 0 0 0 0 0 0 0 0.25 0"/>
<feBlend mode="normal" in2="BackgroundImageFix" result="effect1_dropShadow_240_4843"/>
<feBlend mode="normal" in="SourceGraphic" in2="effect1_dropShadow_240_4843" result="shape"/>
</filter>
<linearGradient id="paint0_linear_240_4843" x1="162.375" y1="168" x2="164.81" y2="233.732" gradientUnits="userSpaceOnUse">
<stop stop-color="#F9F9F9" stop-opacity="0"/>
<stop offset="1" stop-color="#F9F9F9"/>
</linearGradient>
<clipPath id="clip0_240_4843">
<rect x="60" y="30" width="208" height="216" rx="8" fill="white"/>
</clipPath>
<clipPath id="clip1_240_4843">
<rect x="97" y="61" width="134" height="136" rx="12" fill="white"/>
</clipPath>
</defs>
</svg>
