<svg width="219" height="196" viewBox="0 0 219 196" fill="none" xmlns="http://www.w3.org/2000/svg">
<path fill-rule="evenodd" clip-rule="evenodd" d="M185.111 152.482C180.049 156.26 175.113 159.811 169.525 162.88L169.849 190.513C169.874 192.68 168.135 194.458 165.965 194.483C165.083 194.493 164.222 194.207 163.523 193.669L138.643 174.553C129.317 176.697 119.48 177.844 109.315 177.844C49.6324 177.844 1.25 138.312 1.25 89.5468C1.25 40.7818 49.6324 1.25 109.315 1.25C168.998 1.25 217.38 40.7818 217.38 89.5468C217.38 103.044 213.674 115.834 207.047 127.274C205.825 129.384 204.504 131.448 203.088 133.462C203.088 133.462 200.32 137.619 194.785 143.506C189.249 149.392 185.111 152.482 185.111 152.482Z" fill="white"/>
<path fill-rule="evenodd" clip-rule="evenodd" d="M185.111 152.482C180.049 156.26 175.113 159.811 169.525 162.88L169.849 190.513C169.874 192.68 168.135 194.458 165.965 194.483C165.083 194.493 164.222 194.207 163.523 193.669L138.643 174.553C129.317 176.697 119.48 177.844 109.315 177.844C49.6324 177.844 1.25 138.312 1.25 89.5468C1.25 40.7818 49.6324 1.25 109.315 1.25C168.998 1.25 217.38 40.7818 217.38 89.5468C217.38 103.044 213.674 115.834 207.047 127.274C205.825 129.384 204.504 131.448 203.088 133.462C203.088 133.462 200.32 137.619 194.785 143.506C189.249 149.392 185.111 152.482 185.111 152.482Z" stroke="#1F64E7" stroke-width="2.5" stroke-linecap="round"/>
<path fill-rule="evenodd" clip-rule="evenodd" d="M173.865 65.1943C184.288 65.1943 194.324 63.9532 203.727 61.6572C207.479 70.1918 209.521 79.388 209.521 88.9714C209.521 101.403 206.084 113.184 199.94 123.721C198.806 125.664 197.581 127.565 196.268 129.42C194.195 132.349 192.717 134.417 191.416 136.076C188.338 139.999 186.247 141.63 179.599 146.939C175.165 150.481 170.327 153.689 165.146 156.516L165.446 181.969C165.47 183.965 166.077 187.629 164.065 187.653C163.247 187.662 160.229 185.371 159.581 184.876L139.52 166.985C130.872 168.96 118.741 170.299 109.315 170.299C53.9731 170.299 9.10938 133.887 9.10938 88.9714C9.10938 52.1883 39.1972 21.1086 80.488 11.0596C91.3022 42.2077 129.009 65.1943 173.865 65.1943ZM70.5905 78.0636C64.0967 78.0636 58.8325 83.3546 58.8325 89.8813C58.8325 96.4081 64.0967 101.699 70.5905 101.699C77.0843 101.699 82.3485 96.4081 82.3485 89.8813C82.3485 83.3546 77.0843 78.0636 70.5905 78.0636ZM107.824 78.0636C101.33 78.0636 96.0662 83.3546 96.0662 89.8813C96.0662 96.4081 101.33 101.699 107.824 101.699C114.318 101.699 119.582 96.4081 119.582 89.8813C119.582 83.3546 114.318 78.0636 107.824 78.0636ZM145.058 78.0636C138.564 78.0636 133.3 83.3546 133.3 89.8813C133.3 96.4081 138.564 101.699 145.058 101.699C151.552 101.699 156.816 96.4081 156.816 89.8813C156.816 83.3546 151.552 78.0636 145.058 78.0636Z" fill="#E8F0FE"/>
<path fill-rule="evenodd" clip-rule="evenodd" d="M70.0184 77.7734C76.5293 77.7734 81.8073 83.0443 81.8073 89.5463C81.8073 96.0483 76.5293 101.319 70.0184 101.319C63.5076 101.319 58.2295 96.0483 58.2295 89.5463C58.2295 83.0443 63.5076 77.7734 70.0184 77.7734ZM107.35 77.7734C113.861 77.7734 119.139 83.0443 119.139 89.5463C119.139 96.0483 113.861 101.319 107.35 101.319C100.839 101.319 95.5611 96.0483 95.5611 89.5463C95.5611 83.0443 100.839 77.7734 107.35 77.7734ZM144.682 77.7734C151.192 77.7734 156.47 83.0443 156.47 89.5463C156.47 96.0483 151.192 101.319 144.682 101.319C138.171 101.319 132.893 96.0483 132.893 89.5463C132.893 83.0443 138.171 77.7734 144.682 77.7734Z" fill="white" stroke="#1F64E7" stroke-width="2.5"/>
<path d="M30.0575 60.7246C28.2734 63.7305 26.7273 66.85 25.4395 70.0664" stroke="#75A4FE" stroke-width="2.5" stroke-linecap="round"/>
<path d="M66.1329 28.8633C53.258 34.9996 42.3882 43.6798 34.5332 54.0711" stroke="#75A4FE" stroke-width="2.5" stroke-linecap="round"/>
</svg>
