<svg width="24" height="24" viewBox="0 0 24 24" fill="none" xmlns="http://www.w3.org/2000/svg">
<path fill-rule="evenodd" clip-rule="evenodd" d="M20.7709 11.3201C20.6287 9.02352 19.5996 6.87211 17.9009 5.32006L17.8909 5.26006C17.8152 5.16718 17.7146 5.0978 17.6009 5.06006C15.9999 3.72171 13.9776 2.9921 11.8909 3.00006H11.3009C10.1847 3.10029 9.0965 3.40538 8.09088 3.90006H8.00088C4.27731 5.7153 2.29846 9.85954 3.22767 13.8964C4.15687 17.9334 7.74841 20.7954 11.8909 20.8001H12.4809C14.8378 20.6435 17.0358 19.5565 18.5908 17.7783C20.1457 16.0002 20.93 13.6768 20.7709 11.3201ZM14.0909 11.6701C13.7709 11.0501 13.4409 10.4301 13.0909 9.83006C14.1991 9.21899 15.2413 8.49516 16.2009 7.67006L17.2009 6.79006C18.3465 7.99195 19.0515 9.54635 19.2009 11.2001C17.522 11.0258 15.8253 11.1717 14.2009 11.6301L14.0909 11.6701ZM11.9009 4.52006H11.4109C10.7938 4.56916 10.1856 4.69686 9.60088 4.90006C10.5861 6.05375 11.4915 7.27324 12.3109 8.55006C13.3494 7.98391 14.3277 7.31381 15.2309 6.55006L16.0609 5.83006C14.8398 4.98027 13.3885 4.52326 11.9009 4.52006ZM8.18088 5.52006L8.25088 5.59006C9.23891 6.73799 10.1445 7.95436 10.9609 9.23006C9.40234 9.91146 7.7508 10.3564 6.06088 10.5501L4.60088 10.7101C4.96054 8.53019 6.2729 6.62397 8.18088 5.51006V5.52006ZM4.51088 12.2201V12.3801C4.63288 14.1065 5.35861 15.735 6.56088 16.9801C7.59721 15.3798 9.00348 14.0524 10.6609 13.1101C11.3086 12.7608 11.9764 12.4503 12.6609 12.1801C12.3709 11.6101 12.0709 11.0501 11.7509 10.5001C10.0024 11.296 8.13966 11.8123 6.23088 12.0301L4.51088 12.2201ZM12.3709 19.2801H11.8809C10.373 19.2777 8.90271 18.8097 7.67089 17.9401C8.58821 16.4784 9.85229 15.2658 11.3509 14.4101C11.9992 14.0708 12.667 13.7703 13.3509 13.5101C14.0167 14.981 14.5748 16.4983 15.0209 18.0501L15.1609 18.5301C14.2911 18.966 13.342 19.2211 12.3709 19.2801ZM16.4509 17.7201C16.8127 17.4385 17.1475 17.1238 17.4509 16.7801C18.4637 15.6413 19.0964 14.2152 19.2609 12.7001C17.7528 12.5312 16.2264 12.6465 14.7609 13.0401C15.4334 14.5379 15.9982 16.0818 16.4509 17.6601V17.7201Z" fill="#9095A1"/>
</svg>
