<svg width="20" height="19" viewBox="0 0 20 19" fill="none" xmlns="http://www.w3.org/2000/svg">
<path d="M17.5361 1C18.0256 1 18.4952 1.21071 18.8414 1.58579C19.1875 1.96086 19.382 2.46957 19.382 3V17C19.382 17.5304 19.1875 18.0391 18.8414 18.4142C18.4952 18.7893 18.0256 19 17.5361 19H2.76848C2.27891 19 1.80938 18.7893 1.4632 18.4142C1.11702 18.0391 0.922534 17.5304 0.922534 17V11C0.922534 10.7348 1.01978 10.4804 1.19287 10.2929C1.36596 10.1054 1.60072 10 1.84551 10C2.0903 10 2.32506 10.1054 2.49815 10.2929C2.67124 10.4804 2.76848 10.7348 2.76848 11V13.1L7.37874 8.106C7.48588 7.98989 7.61307 7.89779 7.75307 7.83495C7.89306 7.77211 8.04311 7.73977 8.19465 7.73977C8.34618 7.73977 8.49623 7.77211 8.63623 7.83495C8.77622 7.89779 8.90342 7.98989 9.01056 8.106L12.7624 12.172L13.9051 10.934C14.0122 10.8179 14.1394 10.7258 14.2794 10.6629C14.4194 10.6001 14.5695 10.5678 14.721 10.5678C14.8725 10.5678 15.0226 10.6001 15.1626 10.6629C15.3026 10.7258 15.4298 10.8179 15.5369 10.934L17.5361 13.101V3H10.1523C9.90749 3 9.67273 2.89464 9.49963 2.70711C9.32654 2.51957 9.2293 2.26522 9.2293 2C9.2293 1.73478 9.32654 1.48043 9.49963 1.29289C9.67273 1.10536 9.90749 1 10.1523 1H17.5361ZM3.69146 0C3.86413 -4.16657e-07 4.03333 0.0524781 4.17985 0.151471C4.32637 0.250465 4.44431 0.392002 4.52029 0.56L4.56459 0.677L4.68458 1.055C4.81121 1.45718 5.01526 1.82563 5.28321 2.13594C5.55116 2.44625 5.87691 2.69135 6.23887 2.855L6.40962 2.925L6.7585 3.054C6.93122 3.11797 7.08256 3.236 7.19337 3.39316C7.30419 3.55031 7.3695 3.73954 7.38106 3.93691C7.39262 4.13429 7.3499 4.33094 7.25831 4.50201C7.16672 4.67308 7.03036 4.81089 6.86649 4.898L6.7585 4.946L6.40962 5.076C6.03841 5.2132 5.69834 5.43428 5.41193 5.72459C5.12552 6.01491 4.89931 6.36783 4.74826 6.76L4.68365 6.945L4.56459 7.323C4.50554 7.51014 4.39661 7.6741 4.25156 7.79416C4.10651 7.91423 3.93185 7.98499 3.74968 7.99752C3.56751 8.01004 3.38601 7.96376 3.22811 7.86452C3.07022 7.76528 2.94303 7.61755 2.86263 7.44L2.81832 7.323L2.69834 6.945C2.5717 6.54282 2.36765 6.17437 2.0997 5.86406C1.83175 5.55375 1.50601 5.30865 1.14405 5.145L0.973298 5.075L0.624414 4.946C0.451691 4.88203 0.300355 4.764 0.189541 4.60684C0.0787269 4.44969 0.0134112 4.26046 0.00185268 4.06309C-0.00970585 3.86571 0.0330119 3.66906 0.124604 3.49799C0.216197 3.32692 0.352551 3.18911 0.516426 3.102L0.624414 3.054L0.973298 2.924C1.3445 2.7868 1.68457 2.56572 1.97098 2.27541C2.25739 1.98509 2.48361 1.63217 2.63465 1.24L2.69926 1.055L2.81832 0.677C2.88051 0.479587 2.99812 0.308185 3.15468 0.18679C3.31125 0.0653942 3.49893 8.32272e-05 3.69146 0ZM13.3827 5C13.7499 5 14.102 5.15804 14.3616 5.43934C14.6213 5.72064 14.7671 6.10218 14.7671 6.5C14.7671 6.89782 14.6213 7.27936 14.3616 7.56066C14.102 7.84196 13.7499 8 13.3827 8C13.0155 8 12.6634 7.84196 12.4037 7.56066C12.1441 7.27936 11.9982 6.89782 11.9982 6.5C11.9982 6.10218 12.1441 5.72064 12.4037 5.43934C12.6634 5.15804 13.0155 5 13.3827 5Z" fill="#0039C8"/>
</svg>
